<svg width="1770" height="1106" viewBox="0 0 1770 1106" fill="none" xmlns="http://www.w3.org/2000/svg">
<mask id="path-1-inside-1_116_63" fill="white">
<path d="M66.4518 1012.53C67.3851 1012.27 68.0517 1013.33 68.0517 1014.8C68.0517 1017.6 66.5851 1018.4 64.8517 1016.67C63.6517 1015.47 64.5851 1013.2 66.4518 1012.53Z"/>
<path d="M70.985 84.2666C71.6517 84.2666 72.0517 85.7334 72.0517 87.4668C72.0517 90.667 71.785 90.667 67.9184 89.333L63.6517 87.8662L66.8517 86.1338C67.3305 85.876 67.8195 85.6279 68.2877 85.4014C69.5145 84.8096 70.599 84.3633 70.985 84.2666Z"/>
<path d="M108.718 526.533L134.318 501.467L169.518 494.267C327.785 462 356.052 456.267 357.652 456.267C358.852 456.267 362.452 465.6 368.318 483.2L377.252 510.267L379.119 591.733L369.518 620.667C361.652 644 359.385 649.6 357.385 649.6C356.052 649.6 328.718 644.267 296.585 637.733C273.994 633.065 243.297 626.829 217.493 621.587L215.917 621.267C205.477 619.146 195.894 617.199 188.052 615.6C160.585 610 137.518 605.066 136.718 604.533C134.452 603.2 82.7184 552.934 82.985 552.267C82.985 551.866 94.5851 540.267 108.718 526.533Z"/>
<path d="M92.985 1005.47C95.1183 1004.67 98.3185 1003.73 100.318 1003.33L104.052 1002.53V1028.53L100.318 1027.87C90.0517 1025.73 89.3851 1025.07 89.3851 1015.6C89.3851 1007.33 89.5184 1006.8 92.985 1005.47Z"/>
<path d="M97.5184 75.0664C99.9184 74.2666 102.318 73.5996 102.852 73.5996C103.518 73.5996 104.052 79.8662 104.052 87.5996C104.052 98.1338 103.652 101.333 102.318 100.934C101.581 100.667 100.905 100.429 100.284 100.21C97.0141 99.0557 95.2853 98.4463 94.3746 97.2256C93.3527 95.8564 93.3615 93.7178 93.3795 89.1787C93.3822 88.5254 93.3851 87.8232 93.3851 87.0664V76.5332L97.5184 75.0664Z"/>
<path d="M127.518 994.4C129.518 993.867 131.252 993.6 131.385 993.867C131.652 994.134 132.185 1004.27 132.718 1016.53L132.725 1016.67C133.437 1032.53 133.665 1037.61 131.839 1038.5C130.98 1038.93 129.664 1038.42 127.728 1037.68L127.518 1037.6L124.052 1036.27V995.2L127.518 994.4Z"/>
<path d="M128.985 64.1338L132.052 63.0664V87.0664C132.052 100.267 131.652 110.8 130.985 110.533C130.452 110.267 128.985 109.6 127.652 109.2C125.518 108.4 125.385 106.4 125.652 86.7998C126.052 65.8662 126.185 65.2002 128.985 64.1338Z"/>
<path d="M166.718 446.267C188.052 409.333 309.652 195.6 312.185 190.8C314.452 186.267 314.852 183.866 314.185 178.8L313.252 172.4L378.985 172.134L378.185 177.2C376.185 189.6 346.718 420.533 346.718 423.467C346.718 425.866 345.918 427.066 343.652 427.6C342.052 427.866 322.985 431.733 301.385 436.134C216.718 453.333 161.918 464.533 158.852 465.2L158.457 465.305C157.618 465.528 157.002 465.692 156.752 465.462C156.062 464.824 158.159 461.172 166.05 447.43L166.718 446.267Z"/>
<path d="M253.918 660.267C304.452 670.533 345.918 679.066 346.052 679.2C346.585 680.4 378.718 926 378.318 926.4C378.052 926.667 366.185 926.267 351.918 925.6C337.652 924.934 322.718 924.267 318.585 924.267H310.985L311.652 918.533C312.185 914.267 311.518 911.2 309.518 907.066C306.852 902 265.918 829.066 189.119 692.934C173.385 665.066 160.852 642.134 161.385 641.866C161.785 641.733 203.518 650 253.918 660.267Z"/>
<path d="M173.815 972.852C174.704 972.665 175.638 972.471 176.591 972.273C180.008 971.565 183.677 970.821 186.452 970.267C190.985 969.333 195.119 969.066 195.385 969.733C195.785 970.267 195.652 991.467 195.252 1016.93L194.318 1062.93L190.185 1062.27C185.918 1061.6 165.652 1058.93 164.585 1058.93C164.318 1058.93 163.918 1047.73 163.652 1033.87C163.518 1020.13 163.252 1001.33 162.985 992L162.718 975.066L170.318 973.6C171.341 973.376 172.531 973.122 173.815 972.852Z"/>
<path d="M164.985 51.2002C166.318 50.5332 172.452 49.2002 178.718 48.4004C184.985 47.5996 191.652 46.5332 193.652 46.1338L197.385 45.333V88.1338C197.385 128 197.252 130.934 194.985 130.934C193.785 130.934 186.052 130 178.052 128.934C174.164 128.424 170.611 127.944 167.932 127.583C165.007 127.188 163.124 126.934 162.985 126.934C162.852 126.934 162.718 110.134 162.718 89.5996C162.718 55.4668 162.852 52.2666 164.985 51.2002Z"/>
<path d="M244.718 958.934C260.585 955.733 273.652 953.467 274.052 953.867C274.318 954.134 274.852 980.934 274.985 1013.33L275.385 1072.27H271.918C270.052 1072.27 257.119 1070.8 243.252 1068.93C229.385 1067.07 217.652 1065.6 216.985 1065.6C216.452 1065.6 216.052 1042.93 216.052 1015.07V964.667L244.718 958.934Z"/>
<path d="M244.718 38.2666C258.585 36.2666 270.852 34.2666 271.652 34C272.985 33.4668 273.385 44.5332 273.385 86.7998V140.267H269.652C267.652 140.134 255.518 138.8 242.718 137.2L219.385 134.267L218.718 88.9336C218.318 64 218.318 43.2002 218.718 42.7998C219.119 42.4004 230.718 40.4004 244.718 38.2666Z"/>
<path d="M319.385 31.8662C333.252 32 353.252 32.5332 363.652 33.0664L382.718 33.8662V141.6H354.985C339.785 141.6 319.785 142 310.318 142.533L293.385 143.333L293.652 87.4668L294.052 31.5996L319.385 31.8662Z"/>
<path d="M303.652 954.134C308.718 954.533 322.852 955.2 335.385 955.6C347.785 956 362.985 956.667 368.985 957.066L380.052 957.867V1004C380.052 1029.47 379.652 1055.2 379.252 1061.07L378.318 1071.87L346.185 1072.8C328.585 1073.33 310.052 1074 305.119 1074.53L296.052 1075.33L295.652 1031.47C295.518 1007.33 295.252 979.867 294.985 970.4L294.718 953.333L303.652 954.134Z"/>
<path d="M377.785 685.6C378.052 685.6 393.119 688.533 411.385 692.267C447.252 699.467 451.652 699.866 457.252 697.066C466.718 692.134 466.052 676.267 456.052 670.934C454.718 670.267 437.252 666.267 417.119 662.134C408.022 660.254 399.643 658.512 393.198 657.171L390.749 656.661C384.441 655.35 380.516 654.533 380.452 654.533C380.318 654.4 383.918 643.467 388.452 630.267L396.585 606.267L487.119 606.667L577.785 606.934L580.985 604C584.985 600.267 584.985 594.4 580.985 590.4L577.918 587.333L517.385 586.533C484.185 586 444.185 585.6 428.718 585.6H400.452L399.652 574.533C399.119 568.533 398.718 553.866 398.718 542.134V520.667L404.852 519.733C408.318 519.333 446.852 518.934 490.718 518.934C545.385 518.934 571.652 518.533 574.585 517.467C582.318 514.8 584.052 505.2 577.652 500.267L574.052 497.333L395.252 499.2L387.652 475.6C383.385 462.533 380.185 451.733 380.318 451.6C380.585 451.333 392.985 448.8 408.052 445.733C422.985 442.667 436.185 439.467 437.385 438.533C442.185 434.934 444.052 431.467 444.052 425.6C444.052 416.4 438.318 410.934 428.852 410.934C426.318 410.934 413.918 413.066 401.385 415.733C388.852 418.4 378.318 420.267 378.052 420C377.785 419.866 381.252 392.267 385.518 358.934C387.843 341.324 390.912 317.535 393.958 293.922L393.986 293.699C396.697 272.689 399.388 251.832 401.518 235.6C405.918 201.2 409.652 172.8 409.918 172.667C410.185 172.4 417.119 172.4 425.252 172.533L440.185 172.934L436.718 177.6C434.718 180.134 432.585 183.6 431.918 185.333C430.718 188.4 432.852 386 434.185 397.333C434.985 404.134 440.185 410.533 446.052 412C448.318 412.667 462.452 412.134 478.718 410.8L507.385 408.533L531.385 411.6C544.585 413.333 606.985 421.467 670.052 429.6C733.119 437.733 785.518 444.533 786.318 444.934C787.652 445.333 788.052 451.467 788.052 469.6C788.052 482.8 787.652 493.6 787.119 493.6C782.052 493.6 635.252 511.333 630.985 512.533C625.785 513.866 624.318 515.333 614.052 529.6C607.785 538.267 602.185 546.934 601.385 549.066C599.385 554.267 603.252 560.934 618.318 578.134C628.185 589.333 631.518 592.267 634.985 592.8C637.385 593.2 670.318 596.533 708.052 600.267L715.891 601.042C750.35 604.451 779.761 607.361 782.985 607.733L789.385 608.533V666.533L778.985 668C773.385 668.8 744.052 673.066 714.052 677.467C683.919 681.866 624.585 690.533 582.052 696.8L504.718 708L485.385 705.6C474.718 704.134 462.585 703.066 458.185 702.934C451.119 702.934 450.052 703.333 446.052 707.333C445.725 707.66 445.42 707.941 445.134 708.205C444.799 708.514 444.49 708.798 444.203 709.103C440.857 712.666 440.52 719.056 436.236 800.162L435.385 816.267C430.052 916.267 429.918 918.934 432.852 924.4C433.918 926.667 434.718 928.667 434.452 928.8C434.185 928.934 428.585 928.667 422.052 928.267L410.052 927.6L393.918 807.6C390.968 785.801 388.192 765.268 385.792 747.518C380.926 711.526 377.608 686.979 377.518 686.533C377.518 686 377.518 685.6 377.785 685.6Z"/>
<path d="M402.185 959.066C402.718 958.533 460.585 960.4 505.918 962.533L524.452 963.333L523.518 1014.8C522.985 1043.07 522.452 1066.27 522.318 1066.4C522.185 1066.53 503.119 1067.33 480.052 1068.13C460.036 1068.83 436.606 1069.72 423.876 1070.21L418.852 1070.4L399.652 1071.33L400.718 1015.47C401.252 984.8 401.918 959.333 402.185 959.066Z"/>
<path d="M422.985 35.0664C433.518 35.0664 460.585 35.8662 483.385 36.667L524.718 38.2666L524.318 58.2666C524.185 69.2002 523.652 91.8662 523.252 108.533L522.318 138.8L516.852 139.467C513.918 139.866 502.052 140.533 490.718 140.934C485.035 141.201 479.485 141.435 475.129 141.618C470.799 141.801 467.649 141.934 466.718 142C464.852 142 450.052 142 433.652 141.866L404.052 141.6V34.9336L422.985 35.0664Z"/>
<path d="M555.385 976.533C555.652 976.267 559.385 977.066 563.918 978.267L571.918 980.533L572.585 987.467C572.985 991.2 573.518 1007.07 573.785 1022.53C574.318 1047.73 574.052 1050.93 572.185 1051.47C570.985 1051.87 567.385 1052.8 564.052 1053.6C562.419 1053.99 560.69 1054.45 559.194 1054.84C557.636 1055.25 556.332 1055.6 555.652 1055.73C553.385 1056.4 553.252 1054.67 554.185 1016.67C554.718 994.8 555.252 976.8 555.385 976.533Z"/>
<path d="M554.708 68.2324C554.674 55.9736 554.661 51.3633 556.707 50.1064C557.94 49.3496 559.919 49.8086 563.091 50.5449C563.795 50.709 564.558 50.8857 565.385 51.0664L572.052 52.5332V124.134L564.852 126.134L563.43 126.56C558.568 128.018 555.943 128.806 554.604 127.829C553.034 126.685 553.233 123.114 553.666 115.355L553.785 113.2C554.318 105.066 554.718 87.333 554.718 73.8662C554.718 71.8291 554.713 69.9551 554.708 68.2324Z"/>
<path d="M594.185 57.7334C594.718 57.2002 661.252 71.333 662.985 72.4004C663.785 72.9336 663.918 78.1338 663.119 86.9336L662.052 100.667L630.052 109.066C612.452 113.733 596.718 117.866 595.119 118.267L592.185 118.934L592.985 88.667C593.385 71.8662 593.918 58 594.185 57.7334Z"/>
<path d="M594.318 986.934C596.852 986.934 660.985 1004.93 662.318 1006C663.918 1007.2 664.985 1028.27 663.518 1028.27C663.119 1028.27 647.785 1032.13 629.385 1036.93C610.985 1041.73 595.652 1045.6 595.252 1045.6C594.985 1045.6 594.585 1036.8 594.318 1025.87C594.213 1017.33 593.941 1007.31 593.766 1000.84C593.72 999.121 593.68 997.653 593.652 996.533C593.518 991.333 593.785 986.934 594.318 986.934Z"/>
<path d="M631.518 540.934C636.185 534.134 638.452 532.134 641.785 531.6C648.185 530.533 782.318 514.934 785.385 514.934C787.919 514.934 788.052 515.866 788.052 529.066V543.2L716.985 542.8L708.734 542.742C652.517 542.346 644.028 542.286 641.326 546.211C640.846 546.908 640.548 547.731 640.198 548.701C640.11 548.947 640.018 549.202 639.918 549.467C638.318 553.333 640.452 559.467 643.785 561.2C645.119 561.733 678.185 562.533 717.385 562.934L788.719 563.6L789.119 575.2C789.518 586.4 789.385 586.934 786.585 586.934C780.985 586.934 648.585 573.6 644.452 572.667C639.518 571.467 623.652 554.134 624.718 551.2C625.119 550.267 628.052 545.6 631.518 540.934Z"/>
<path d="M688.985 1009.6C691.785 1009.6 710.185 1011.07 730.052 1012.93C749.785 1014.8 767.518 1016.27 769.252 1016.27C770.985 1016.27 772.185 1016.53 771.919 1016.8C770.985 1017.87 687.785 1024.4 685.785 1023.73C684.718 1023.2 684.052 1020.67 684.052 1016.27V1009.6H688.985Z"/>
<path d="M686.318 76.2666C690.719 76.1338 787.385 85.8662 789.385 86.667C791.252 87.2002 698.585 96 688.318 96.2666H684.052V86.2666C684.052 77.5996 684.318 76.2666 686.318 76.2666Z"/>
<path fill-rule="evenodd" clip-rule="evenodd" d="M820.985 472.8C838.052 478.134 913.785 496.134 921.385 496.8C928.56 497.364 973.851 500.707 1028.44 504.735C1064.13 507.37 1103.8 510.298 1139.39 512.934C1174.59 515.467 1206.59 517.866 1210.32 518.4L1217.39 519.066V584L1208.32 584.8C1203.39 585.2 1156.19 588.667 1103.39 592.267C1092.17 593.06 1080.49 593.883 1068.82 594.705C1025.55 597.755 982.392 600.797 963.385 602.267L919.385 605.467L886.052 614.934C881.289 616.279 876.321 617.688 871.434 619.074C857.441 623.041 844.114 626.819 838.185 628.4C830.185 630.667 822.852 632.8 821.919 633.2C820.052 633.866 819.785 625.2 818.985 516.533C818.719 474.8 818.852 472.134 820.985 472.8Z"/>
<path d="M1245.65 520.8C1250.32 521.2 1270.59 522.8 1290.72 524.267C1310.85 525.733 1363.52 529.6 1407.79 532.934C1452.05 536.267 1489.39 538.934 1490.85 538.934C1493.39 538.934 1493.52 539.733 1493.12 551.867L1492.72 564.934L1478.05 566C1400.19 571.333 1252.32 581.733 1245.65 582.4L1237.39 583.2V520L1245.65 520.8Z"/>
<path d="M1514.45 543.6C1515.39 540.934 1515.79 540.934 1587.39 546C1626.99 548.934 1660.32 551.6 1661.39 552C1662.45 552.4 1660.99 553.066 1658.05 553.2C1638.45 554.8 1519.92 562.934 1516.99 562.934C1513.39 562.934 1513.39 562.8 1513.52 554.533C1513.65 550 1514.05 545.066 1514.45 543.6Z"/>
<path fill-rule="evenodd" clip-rule="evenodd" d="M1.25184 1020.93C1.91835 1022.4 3.51845 1024.67 4.985 1025.87C6.31849 1027.2 35.6517 1038 69.9184 1050L132.452 1071.73L135.118 1077.47C137.118 1081.87 139.118 1083.87 143.252 1085.6C146.985 1087.2 172.052 1090.93 219.385 1096.8L290.052 1105.73L325.385 1104.4C344.852 1103.6 388.052 1102 421.385 1100.93L433.652 1100.51C536.367 1097 540.631 1096.85 544.025 1095.06C544.329 1094.9 544.625 1094.72 544.985 1094.53C547.385 1093.2 549.918 1091.07 550.718 1089.6C551.518 1088.13 553.385 1086.93 554.852 1086.93C557.385 1086.93 637.119 1066.93 664.718 1059.33C677.785 1055.87 691.252 1054.53 894.052 1038.27C926.318 1035.73 954.585 1033.33 956.985 1032.93C963.119 1031.87 969.119 1026.4 970.185 1020.67C971.252 1015.07 968.318 1008 963.652 1004.93C961.252 1003.33 928.585 1000 819.252 990.267C711.919 980.667 675.518 976.934 667.385 974.8C663.144 973.739 647.544 969.474 628.696 964.32C621.473 962.345 613.773 960.239 606.052 958.134C560.452 945.6 555.119 943.867 552.052 940.4C550.185 938.267 547.385 935.867 545.785 935.066C543.252 933.733 500.985 930.934 483.119 930.934H476.185L468.852 921.333C462.985 913.867 461.385 910.8 461.385 907.066C461.385 897.2 470.585 735.866 471.252 735.333C471.518 734.934 479.385 735.6 488.718 736.8L505.518 739.066L656.052 716.934C738.852 704.8 807.919 694.4 809.652 693.733C816.585 691.066 819.385 686.134 820.052 675.333L820.719 665.2L927.385 635.333L978.052 631.866C1065.79 625.733 1515.25 594 1678.85 582.4L1683.06 582.105C1752.2 577.261 1761.22 576.628 1765.52 571.794C1766.28 570.941 1766.89 569.959 1767.65 568.8C1769.39 566 1769.92 562.4 1769.79 552C1769.79 537.467 1768.19 533.333 1760.99 529.867C1758.72 528.8 1732.05 526.267 1687.12 522.934C1669.28 521.585 1619.63 517.897 1552.43 512.907C1473.47 507.043 1370.29 499.38 1266.05 491.6L915.385 465.6L882.052 456.934C863.652 452.267 842.052 446.667 834.052 444.533L819.385 440.667L817.919 432.533C816.318 423.6 814.719 421.066 809.119 418.134C805.252 416.134 798.185 415.2 616.052 391.733L507.385 377.733L486.718 379.467C475.385 380.533 465.652 381.066 465.252 380.8C464.852 380.533 464.052 352.533 463.518 318.667C463.119 284.667 462.318 243.066 461.918 226.267L461.119 195.6L471.119 183.467L481.252 171.333L509.918 170.533C539.119 169.6 543.918 168.8 548.852 164.134C550.452 162.667 557.252 160 564.185 158.134C570.3 156.487 593.115 150.483 617.535 144.059L678.052 128.134L820.852 115.733C936.852 105.6 964.185 102.934 966.985 101.066C974.052 96.4004 975.518 85.7334 969.919 79.0664C965.785 74.1338 961.518 72.9336 941.385 71.0664C937.522 70.6982 922.295 69.1465 900.411 66.915C874.709 64.2949 839.825 60.7393 803.385 57.0664L680.719 44.4004L617.385 30.7998C567.119 20 553.652 16.667 552.318 14.7998C552.125 14.5283 551.952 14.2686 551.786 14.0186C551.543 13.6543 551.316 13.3125 551.063 12.9912C547.238 8.12305 537.613 7.81445 382.384 2.83008L360.718 2.13379L291.385 0L216.852 11.5996C175.785 17.8662 141.652 23.4668 140.852 23.8662C140.052 24.2666 138.052 25.8662 136.585 27.2002C134.985 28.667 106.052 39.5996 72.3185 51.4668C38.5851 63.333 9.38515 74.1338 7.38515 75.4668C2.8517 78.4004 -0.214952 85.5996 0.851698 90.7998C2.5851 99.2002 5.51845 100.533 68.4518 121.467C101.119 132.4 129.119 142 130.585 142.8C132.052 143.6 133.518 145.467 134.052 146.934C134.452 148.4 136.718 150.8 138.985 152.4C142.585 155.066 151.252 156.4 209.785 163.733L217.276 164.689C269.303 171.333 277.366 172.362 279.729 176.583C280.163 177.357 280.404 178.239 280.691 179.282L280.852 179.866C281.385 182 277.119 190.8 263.918 213.866C260.58 219.721 253.915 231.426 245.114 246.885L244.918 247.23C228.066 276.829 203.469 320.033 179.385 362.267L112.452 479.733L79.6517 512.267C58.0517 533.733 46.5851 546.134 45.9184 548.533C44.0517 556.533 45.9184 558.8 83.1183 595.6L119.652 631.6L168.718 718.934C180.879 740.606 194.861 765.486 208.087 789.021L209.467 791.476C225.006 819.128 239.368 844.685 248.318 860.667C272.052 902.667 278.852 915.733 278.185 918.134C277.518 921.066 274.718 921.733 211.119 934.134C174.585 941.333 142.852 948 140.452 948.934C137.785 950.134 135.118 952.8 133.518 956L130.985 961.066L69.785 980.667C13.3851 998.934 8.31849 1000.8 4.31849 1004.93C-0.0816517 1009.73 -1.1483 1015.07 1.25184 1020.93Z"/>
<path d="M927 553C927 576.196 908.196 595 885 595C861.804 595 843 576.196 843 553C843 529.804 861.804 511 885 511C908.196 511 927 529.804 927 553Z"/>
</mask>
<path d="M66.4518 1012.53C67.3851 1012.27 68.0517 1013.33 68.0517 1014.8C68.0517 1017.6 66.5851 1018.4 64.8517 1016.67C63.6517 1015.47 64.5851 1013.2 66.4518 1012.53Z" stroke="black" stroke-width="10" mask="url(#path-1-inside-1_116_63)"/>
<path d="M70.985 84.2666C71.6517 84.2666 72.0517 85.7334 72.0517 87.4668C72.0517 90.667 71.785 90.667 67.9184 89.333L63.6517 87.8662L66.8517 86.1338C67.3305 85.876 67.8195 85.6279 68.2877 85.4014C69.5145 84.8096 70.599 84.3633 70.985 84.2666Z" stroke="black" stroke-width="10" mask="url(#path-1-inside-1_116_63)"/>
<path d="M108.718 526.533L134.318 501.467L169.518 494.267C327.785 462 356.052 456.267 357.652 456.267C358.852 456.267 362.452 465.6 368.318 483.2L377.252 510.267L379.119 591.733L369.518 620.667C361.652 644 359.385 649.6 357.385 649.6C356.052 649.6 328.718 644.267 296.585 637.733C273.994 633.065 243.297 626.829 217.493 621.587L215.917 621.267C205.477 619.146 195.894 617.199 188.052 615.6C160.585 610 137.518 605.066 136.718 604.533C134.452 603.2 82.7184 552.934 82.985 552.267C82.985 551.866 94.5851 540.267 108.718 526.533Z" stroke="black" stroke-width="10" mask="url(#path-1-inside-1_116_63)"/>
<path d="M92.985 1005.47C95.1183 1004.67 98.3185 1003.73 100.318 1003.33L104.052 1002.53V1028.53L100.318 1027.87C90.0517 1025.73 89.3851 1025.07 89.3851 1015.6C89.3851 1007.33 89.5184 1006.8 92.985 1005.47Z" stroke="black" stroke-width="10" mask="url(#path-1-inside-1_116_63)"/>
<path d="M97.5184 75.0664C99.9184 74.2666 102.318 73.5996 102.852 73.5996C103.518 73.5996 104.052 79.8662 104.052 87.5996C104.052 98.1338 103.652 101.333 102.318 100.934C101.581 100.667 100.905 100.429 100.284 100.21C97.0141 99.0557 95.2853 98.4463 94.3746 97.2256C93.3527 95.8564 93.3615 93.7178 93.3795 89.1787C93.3822 88.5254 93.3851 87.8232 93.3851 87.0664V76.5332L97.5184 75.0664Z" stroke="black" stroke-width="10" mask="url(#path-1-inside-1_116_63)"/>
<path d="M127.518 994.4C129.518 993.867 131.252 993.6 131.385 993.867C131.652 994.134 132.185 1004.27 132.718 1016.53L132.725 1016.67C133.437 1032.53 133.665 1037.61 131.839 1038.5C130.98 1038.93 129.664 1038.42 127.728 1037.68L127.518 1037.6L124.052 1036.27V995.2L127.518 994.4Z" stroke="black" stroke-width="10" mask="url(#path-1-inside-1_116_63)"/>
<path d="M128.985 64.1338L132.052 63.0664V87.0664C132.052 100.267 131.652 110.8 130.985 110.533C130.452 110.267 128.985 109.6 127.652 109.2C125.518 108.4 125.385 106.4 125.652 86.7998C126.052 65.8662 126.185 65.2002 128.985 64.1338Z" stroke="black" stroke-width="10" mask="url(#path-1-inside-1_116_63)"/>
<path d="M166.718 446.267C188.052 409.333 309.652 195.6 312.185 190.8C314.452 186.267 314.852 183.866 314.185 178.8L313.252 172.4L378.985 172.134L378.185 177.2C376.185 189.6 346.718 420.533 346.718 423.467C346.718 425.866 345.918 427.066 343.652 427.6C342.052 427.866 322.985 431.733 301.385 436.134C216.718 453.333 161.918 464.533 158.852 465.2L158.457 465.305C157.618 465.528 157.002 465.692 156.752 465.462C156.062 464.824 158.159 461.172 166.05 447.43L166.718 446.267Z" stroke="black" stroke-width="10" mask="url(#path-1-inside-1_116_63)"/>
<path d="M253.918 660.267C304.452 670.533 345.918 679.066 346.052 679.2C346.585 680.4 378.718 926 378.318 926.4C378.052 926.667 366.185 926.267 351.918 925.6C337.652 924.934 322.718 924.267 318.585 924.267H310.985L311.652 918.533C312.185 914.267 311.518 911.2 309.518 907.066C306.852 902 265.918 829.066 189.119 692.934C173.385 665.066 160.852 642.134 161.385 641.866C161.785 641.733 203.518 650 253.918 660.267Z" stroke="black" stroke-width="10" mask="url(#path-1-inside-1_116_63)"/>
<path d="M173.815 972.852C174.704 972.665 175.638 972.471 176.591 972.273C180.008 971.565 183.677 970.821 186.452 970.267C190.985 969.333 195.119 969.066 195.385 969.733C195.785 970.267 195.652 991.467 195.252 1016.93L194.318 1062.93L190.185 1062.27C185.918 1061.6 165.652 1058.93 164.585 1058.93C164.318 1058.93 163.918 1047.73 163.652 1033.87C163.518 1020.13 163.252 1001.33 162.985 992L162.718 975.066L170.318 973.6C171.341 973.376 172.531 973.122 173.815 972.852Z" stroke="black" stroke-width="10" mask="url(#path-1-inside-1_116_63)"/>
<path d="M164.985 51.2002C166.318 50.5332 172.452 49.2002 178.718 48.4004C184.985 47.5996 191.652 46.5332 193.652 46.1338L197.385 45.333V88.1338C197.385 128 197.252 130.934 194.985 130.934C193.785 130.934 186.052 130 178.052 128.934C174.164 128.424 170.611 127.944 167.932 127.583C165.007 127.188 163.124 126.934 162.985 126.934C162.852 126.934 162.718 110.134 162.718 89.5996C162.718 55.4668 162.852 52.2666 164.985 51.2002Z" stroke="black" stroke-width="10" mask="url(#path-1-inside-1_116_63)"/>
<path d="M244.718 958.934C260.585 955.733 273.652 953.467 274.052 953.867C274.318 954.134 274.852 980.934 274.985 1013.33L275.385 1072.27H271.918C270.052 1072.27 257.119 1070.8 243.252 1068.93C229.385 1067.07 217.652 1065.6 216.985 1065.6C216.452 1065.6 216.052 1042.93 216.052 1015.07V964.667L244.718 958.934Z" stroke="black" stroke-width="10" mask="url(#path-1-inside-1_116_63)"/>
<path d="M244.718 38.2666C258.585 36.2666 270.852 34.2666 271.652 34C272.985 33.4668 273.385 44.5332 273.385 86.7998V140.267H269.652C267.652 140.134 255.518 138.8 242.718 137.2L219.385 134.267L218.718 88.9336C218.318 64 218.318 43.2002 218.718 42.7998C219.119 42.4004 230.718 40.4004 244.718 38.2666Z" stroke="black" stroke-width="10" mask="url(#path-1-inside-1_116_63)"/>
<path d="M319.385 31.8662C333.252 32 353.252 32.5332 363.652 33.0664L382.718 33.8662V141.6H354.985C339.785 141.6 319.785 142 310.318 142.533L293.385 143.333L293.652 87.4668L294.052 31.5996L319.385 31.8662Z" stroke="black" stroke-width="10" mask="url(#path-1-inside-1_116_63)"/>
<path d="M303.652 954.134C308.718 954.533 322.852 955.2 335.385 955.6C347.785 956 362.985 956.667 368.985 957.066L380.052 957.867V1004C380.052 1029.47 379.652 1055.2 379.252 1061.07L378.318 1071.87L346.185 1072.8C328.585 1073.33 310.052 1074 305.119 1074.53L296.052 1075.33L295.652 1031.47C295.518 1007.33 295.252 979.867 294.985 970.4L294.718 953.333L303.652 954.134Z" stroke="black" stroke-width="10" mask="url(#path-1-inside-1_116_63)"/>
<path d="M377.785 685.6C378.052 685.6 393.119 688.533 411.385 692.267C447.252 699.467 451.652 699.866 457.252 697.066C466.718 692.134 466.052 676.267 456.052 670.934C454.718 670.267 437.252 666.267 417.119 662.134C408.022 660.254 399.643 658.512 393.198 657.171L390.749 656.661C384.441 655.35 380.516 654.533 380.452 654.533C380.318 654.4 383.918 643.467 388.452 630.267L396.585 606.267L487.119 606.667L577.785 606.934L580.985 604C584.985 600.267 584.985 594.4 580.985 590.4L577.918 587.333L517.385 586.533C484.185 586 444.185 585.6 428.718 585.6H400.452L399.652 574.533C399.119 568.533 398.718 553.866 398.718 542.134V520.667L404.852 519.733C408.318 519.333 446.852 518.934 490.718 518.934C545.385 518.934 571.652 518.533 574.585 517.467C582.318 514.8 584.052 505.2 577.652 500.267L574.052 497.333L395.252 499.2L387.652 475.6C383.385 462.533 380.185 451.733 380.318 451.6C380.585 451.333 392.985 448.8 408.052 445.733C422.985 442.667 436.185 439.467 437.385 438.533C442.185 434.934 444.052 431.467 444.052 425.6C444.052 416.4 438.318 410.934 428.852 410.934C426.318 410.934 413.918 413.066 401.385 415.733C388.852 418.4 378.318 420.267 378.052 420C377.785 419.866 381.252 392.267 385.518 358.934C387.843 341.324 390.912 317.535 393.958 293.922L393.986 293.699C396.697 272.689 399.388 251.832 401.518 235.6C405.918 201.2 409.652 172.8 409.918 172.667C410.185 172.4 417.119 172.4 425.252 172.533L440.185 172.934L436.718 177.6C434.718 180.134 432.585 183.6 431.918 185.333C430.718 188.4 432.852 386 434.185 397.333C434.985 404.134 440.185 410.533 446.052 412C448.318 412.667 462.452 412.134 478.718 410.8L507.385 408.533L531.385 411.6C544.585 413.333 606.985 421.467 670.052 429.6C733.119 437.733 785.518 444.533 786.318 444.934C787.652 445.333 788.052 451.467 788.052 469.6C788.052 482.8 787.652 493.6 787.119 493.6C782.052 493.6 635.252 511.333 630.985 512.533C625.785 513.866 624.318 515.333 614.052 529.6C607.785 538.267 602.185 546.934 601.385 549.066C599.385 554.267 603.252 560.934 618.318 578.134C628.185 589.333 631.518 592.267 634.985 592.8C637.385 593.2 670.318 596.533 708.052 600.267L715.891 601.042C750.35 604.451 779.761 607.361 782.985 607.733L789.385 608.533V666.533L778.985 668C773.385 668.8 744.052 673.066 714.052 677.467C683.919 681.866 624.585 690.533 582.052 696.8L504.718 708L485.385 705.6C474.718 704.134 462.585 703.066 458.185 702.934C451.119 702.934 450.052 703.333 446.052 707.333C445.725 707.66 445.42 707.941 445.134 708.205C444.799 708.514 444.49 708.798 444.203 709.103C440.857 712.666 440.52 719.056 436.236 800.162L435.385 816.267C430.052 916.267 429.918 918.934 432.852 924.4C433.918 926.667 434.718 928.667 434.452 928.8C434.185 928.934 428.585 928.667 422.052 928.267L410.052 927.6L393.918 807.6C390.968 785.801 388.192 765.268 385.792 747.518C380.926 711.526 377.608 686.979 377.518 686.533C377.518 686 377.518 685.6 377.785 685.6Z" stroke="black" stroke-width="10" mask="url(#path-1-inside-1_116_63)"/>
<path d="M402.185 959.066C402.718 958.533 460.585 960.4 505.918 962.533L524.452 963.333L523.518 1014.8C522.985 1043.07 522.452 1066.27 522.318 1066.4C522.185 1066.53 503.119 1067.33 480.052 1068.13C460.036 1068.83 436.606 1069.72 423.876 1070.21L418.852 1070.4L399.652 1071.33L400.718 1015.47C401.252 984.8 401.918 959.333 402.185 959.066Z" stroke="black" stroke-width="10" mask="url(#path-1-inside-1_116_63)"/>
<path d="M422.985 35.0664C433.518 35.0664 460.585 35.8662 483.385 36.667L524.718 38.2666L524.318 58.2666C524.185 69.2002 523.652 91.8662 523.252 108.533L522.318 138.8L516.852 139.467C513.918 139.866 502.052 140.533 490.718 140.934C485.035 141.201 479.485 141.435 475.129 141.618C470.799 141.801 467.649 141.934 466.718 142C464.852 142 450.052 142 433.652 141.866L404.052 141.6V34.9336L422.985 35.0664Z" stroke="black" stroke-width="10" mask="url(#path-1-inside-1_116_63)"/>
<path d="M555.385 976.533C555.652 976.267 559.385 977.066 563.918 978.267L571.918 980.533L572.585 987.467C572.985 991.2 573.518 1007.07 573.785 1022.53C574.318 1047.73 574.052 1050.93 572.185 1051.47C570.985 1051.87 567.385 1052.8 564.052 1053.6C562.419 1053.99 560.69 1054.45 559.194 1054.84C557.636 1055.25 556.332 1055.6 555.652 1055.73C553.385 1056.4 553.252 1054.67 554.185 1016.67C554.718 994.8 555.252 976.8 555.385 976.533Z" stroke="black" stroke-width="10" mask="url(#path-1-inside-1_116_63)"/>
<path d="M554.708 68.2324C554.674 55.9736 554.661 51.3633 556.707 50.1064C557.94 49.3496 559.919 49.8086 563.091 50.5449C563.795 50.709 564.558 50.8857 565.385 51.0664L572.052 52.5332V124.134L564.852 126.134L563.43 126.56C558.568 128.018 555.943 128.806 554.604 127.829C553.034 126.685 553.233 123.114 553.666 115.355L553.785 113.2C554.318 105.066 554.718 87.333 554.718 73.8662C554.718 71.8291 554.713 69.9551 554.708 68.2324Z" stroke="black" stroke-width="10" mask="url(#path-1-inside-1_116_63)"/>
<path d="M594.185 57.7334C594.718 57.2002 661.252 71.333 662.985 72.4004C663.785 72.9336 663.918 78.1338 663.119 86.9336L662.052 100.667L630.052 109.066C612.452 113.733 596.718 117.866 595.119 118.267L592.185 118.934L592.985 88.667C593.385 71.8662 593.918 58 594.185 57.7334Z" stroke="black" stroke-width="10" mask="url(#path-1-inside-1_116_63)"/>
<path d="M594.318 986.934C596.852 986.934 660.985 1004.93 662.318 1006C663.918 1007.2 664.985 1028.27 663.518 1028.27C663.119 1028.27 647.785 1032.13 629.385 1036.93C610.985 1041.73 595.652 1045.6 595.252 1045.6C594.985 1045.6 594.585 1036.8 594.318 1025.87C594.213 1017.33 593.941 1007.31 593.766 1000.84C593.72 999.121 593.68 997.653 593.652 996.533C593.518 991.333 593.785 986.934 594.318 986.934Z" stroke="black" stroke-width="10" mask="url(#path-1-inside-1_116_63)"/>
<path d="M631.518 540.934C636.185 534.134 638.452 532.134 641.785 531.6C648.185 530.533 782.318 514.934 785.385 514.934C787.919 514.934 788.052 515.866 788.052 529.066V543.2L716.985 542.8L708.734 542.742C652.517 542.346 644.028 542.286 641.326 546.211C640.846 546.908 640.548 547.731 640.198 548.701C640.11 548.947 640.018 549.202 639.918 549.467C638.318 553.333 640.452 559.467 643.785 561.2C645.119 561.733 678.185 562.533 717.385 562.934L788.719 563.6L789.119 575.2C789.518 586.4 789.385 586.934 786.585 586.934C780.985 586.934 648.585 573.6 644.452 572.667C639.518 571.467 623.652 554.134 624.718 551.2C625.119 550.267 628.052 545.6 631.518 540.934Z" stroke="black" stroke-width="10" mask="url(#path-1-inside-1_116_63)"/>
<path d="M688.985 1009.6C691.785 1009.6 710.185 1011.07 730.052 1012.93C749.785 1014.8 767.518 1016.27 769.252 1016.27C770.985 1016.27 772.185 1016.53 771.919 1016.8C770.985 1017.87 687.785 1024.4 685.785 1023.73C684.718 1023.2 684.052 1020.67 684.052 1016.27V1009.6H688.985Z" stroke="black" stroke-width="10" mask="url(#path-1-inside-1_116_63)"/>
<path d="M686.318 76.2666C690.719 76.1338 787.385 85.8662 789.385 86.667C791.252 87.2002 698.585 96 688.318 96.2666H684.052V86.2666C684.052 77.5996 684.318 76.2666 686.318 76.2666Z" stroke="black" stroke-width="10" mask="url(#path-1-inside-1_116_63)"/>
<path fill-rule="evenodd" clip-rule="evenodd" d="M820.985 472.8C838.052 478.134 913.785 496.134 921.385 496.8C928.56 497.364 973.851 500.707 1028.44 504.735C1064.13 507.37 1103.8 510.298 1139.39 512.934C1174.59 515.467 1206.59 517.866 1210.32 518.4L1217.39 519.066V584L1208.32 584.8C1203.39 585.2 1156.19 588.667 1103.39 592.267C1092.17 593.06 1080.49 593.883 1068.82 594.705C1025.55 597.755 982.392 600.797 963.385 602.267L919.385 605.467L886.052 614.934C881.289 616.279 876.321 617.688 871.434 619.074C857.441 623.041 844.114 626.819 838.185 628.4C830.185 630.667 822.852 632.8 821.919 633.2C820.052 633.866 819.785 625.2 818.985 516.533C818.719 474.8 818.852 472.134 820.985 472.8Z" stroke="black" stroke-width="10" mask="url(#path-1-inside-1_116_63)"/>
<path d="M1245.65 520.8C1250.32 521.2 1270.59 522.8 1290.72 524.267C1310.85 525.733 1363.52 529.6 1407.79 532.934C1452.05 536.267 1489.39 538.934 1490.85 538.934C1493.39 538.934 1493.52 539.733 1493.12 551.867L1492.72 564.934L1478.05 566C1400.19 571.333 1252.32 581.733 1245.65 582.4L1237.39 583.2V520L1245.65 520.8Z" stroke="black" stroke-width="10" mask="url(#path-1-inside-1_116_63)"/>
<path d="M1514.45 543.6C1515.39 540.934 1515.79 540.934 1587.39 546C1626.99 548.934 1660.32 551.6 1661.39 552C1662.45 552.4 1660.99 553.066 1658.05 553.2C1638.45 554.8 1519.92 562.934 1516.99 562.934C1513.39 562.934 1513.39 562.8 1513.52 554.533C1513.65 550 1514.05 545.066 1514.45 543.6Z" stroke="black" stroke-width="10" mask="url(#path-1-inside-1_116_63)"/>
<path fill-rule="evenodd" clip-rule="evenodd" d="M1.25184 1020.93C1.91835 1022.4 3.51845 1024.67 4.985 1025.87C6.31849 1027.2 35.6517 1038 69.9184 1050L132.452 1071.73L135.118 1077.47C137.118 1081.87 139.118 1083.87 143.252 1085.6C146.985 1087.2 172.052 1090.93 219.385 1096.8L290.052 1105.73L325.385 1104.4C344.852 1103.6 388.052 1102 421.385 1100.93L433.652 1100.51C536.367 1097 540.631 1096.85 544.025 1095.06C544.329 1094.9 544.625 1094.72 544.985 1094.53C547.385 1093.2 549.918 1091.07 550.718 1089.6C551.518 1088.13 553.385 1086.93 554.852 1086.93C557.385 1086.93 637.119 1066.93 664.718 1059.33C677.785 1055.87 691.252 1054.53 894.052 1038.27C926.318 1035.73 954.585 1033.33 956.985 1032.93C963.119 1031.87 969.119 1026.4 970.185 1020.67C971.252 1015.07 968.318 1008 963.652 1004.93C961.252 1003.33 928.585 1000 819.252 990.267C711.919 980.667 675.518 976.934 667.385 974.8C663.144 973.739 647.544 969.474 628.696 964.32C621.473 962.345 613.773 960.239 606.052 958.134C560.452 945.6 555.119 943.867 552.052 940.4C550.185 938.267 547.385 935.867 545.785 935.066C543.252 933.733 500.985 930.934 483.119 930.934H476.185L468.852 921.333C462.985 913.867 461.385 910.8 461.385 907.066C461.385 897.2 470.585 735.866 471.252 735.333C471.518 734.934 479.385 735.6 488.718 736.8L505.518 739.066L656.052 716.934C738.852 704.8 807.919 694.4 809.652 693.733C816.585 691.066 819.385 686.134 820.052 675.333L820.719 665.2L927.385 635.333L978.052 631.866C1065.79 625.733 1515.25 594 1678.85 582.4L1683.06 582.105C1752.2 577.261 1761.22 576.628 1765.52 571.794C1766.28 570.941 1766.89 569.959 1767.65 568.8C1769.39 566 1769.92 562.4 1769.79 552C1769.79 537.467 1768.19 533.333 1760.99 529.867C1758.72 528.8 1732.05 526.267 1687.12 522.934C1669.28 521.585 1619.63 517.897 1552.43 512.907C1473.47 507.043 1370.29 499.38 1266.05 491.6L915.385 465.6L882.052 456.934C863.652 452.267 842.052 446.667 834.052 444.533L819.385 440.667L817.919 432.533C816.318 423.6 814.719 421.066 809.119 418.134C805.252 416.134 798.185 415.2 616.052 391.733L507.385 377.733L486.718 379.467C475.385 380.533 465.652 381.066 465.252 380.8C464.852 380.533 464.052 352.533 463.518 318.667C463.119 284.667 462.318 243.066 461.918 226.267L461.119 195.6L471.119 183.467L481.252 171.333L509.918 170.533C539.119 169.6 543.918 168.8 548.852 164.134C550.452 162.667 557.252 160 564.185 158.134C570.3 156.487 593.115 150.483 617.535 144.059L678.052 128.134L820.852 115.733C936.852 105.6 964.185 102.934 966.985 101.066C974.052 96.4004 975.518 85.7334 969.919 79.0664C965.785 74.1338 961.518 72.9336 941.385 71.0664C937.522 70.6982 922.295 69.1465 900.411 66.915C874.709 64.2949 839.825 60.7393 803.385 57.0664L680.719 44.4004L617.385 30.7998C567.119 20 553.652 16.667 552.318 14.7998C552.125 14.5283 551.952 14.2686 551.786 14.0186C551.543 13.6543 551.316 13.3125 551.063 12.9912C547.238 8.12305 537.613 7.81445 382.384 2.83008L360.718 2.13379L291.385 0L216.852 11.5996C175.785 17.8662 141.652 23.4668 140.852 23.8662C140.052 24.2666 138.052 25.8662 136.585 27.2002C134.985 28.667 106.052 39.5996 72.3185 51.4668C38.5851 63.333 9.38515 74.1338 7.38515 75.4668C2.8517 78.4004 -0.214952 85.5996 0.851698 90.7998C2.5851 99.2002 5.51845 100.533 68.4518 121.467C101.119 132.4 129.119 142 130.585 142.8C132.052 143.6 133.518 145.467 134.052 146.934C134.452 148.4 136.718 150.8 138.985 152.4C142.585 155.066 151.252 156.4 209.785 163.733L217.276 164.689C269.303 171.333 277.366 172.362 279.729 176.583C280.163 177.357 280.404 178.239 280.691 179.282L280.852 179.866C281.385 182 277.119 190.8 263.918 213.866C260.58 219.721 253.915 231.426 245.114 246.885L244.918 247.23C228.066 276.829 203.469 320.033 179.385 362.267L112.452 479.733L79.6517 512.267C58.0517 533.733 46.5851 546.134 45.9184 548.533C44.0517 556.533 45.9184 558.8 83.1183 595.6L119.652 631.6L168.718 718.934C180.879 740.606 194.861 765.486 208.087 789.021L209.467 791.476C225.006 819.128 239.368 844.685 248.318 860.667C272.052 902.667 278.852 915.733 278.185 918.134C277.518 921.066 274.718 921.733 211.119 934.134C174.585 941.333 142.852 948 140.452 948.934C137.785 950.134 135.118 952.8 133.518 956L130.985 961.066L69.785 980.667C13.3851 998.934 8.31849 1000.8 4.31849 1004.93C-0.0816517 1009.73 -1.1483 1015.07 1.25184 1020.93Z" stroke="black" stroke-width="10" mask="url(#path-1-inside-1_116_63)"/>
<path d="M927 553C927 576.196 908.196 595 885 595C861.804 595 843 576.196 843 553C843 529.804 861.804 511 885 511C908.196 511 927 529.804 927 553Z" stroke="black" stroke-width="10" mask="url(#path-1-inside-1_116_63)"/>
</svg>
